<svg version="1.1" xmlns="http://www.w3.org/2000/svg" xmlns:xlink="http://www.w3.org/1999/xlink" x="0px" y="0px"
	 viewBox="0 0 350 350" style="enable-background:new 0 0 350 350;" xml:space="preserve">
	<g>
		<g>
			<polygon style="fill:#F4DFCF;" points="108.453,131.024 35.582,139.971 35.582,71.135 108.453,62.188 			"/>
			<polygon style="fill:#70A4D4;" points="65.082,87.659 56.306,88.736 56.306,79.104 65.082,78.027 			"/>
			<polygon style="fill:#70A4D4;" points="95.291,95.13 89.553,95.834 89.553,89.362 95.291,88.657 			"/>
			<polygon style="fill:#FDF7F3;" points="88.965,87.08 75.725,88.706 75.725,70.758 88.965,69.132 			"/>
			<polygon style="fill:#70A4D4;" points="86.17,106.4 80.138,107.141 80.138,102.581 86.17,101.84 			"/>
			<polygon style="fill:#FDF7F3;" points="86.023,128.338 72.783,129.964 72.783,111.428 86.023,109.802 			"/>
			<polygon style="fill:#FDF7F3;" points="64.103,121.467 49.539,123.256 49.539,105.014 64.103,103.226 			"/>
			<polygon style="fill:#3E417F;" points="65.365,134.501 58.418,133.431 60.34,126.247 67.287,127.317 			"/>
			<polygon style="fill:#E4A750;" points="54.835,97.155 46.597,98.167 46.597,89.928 54.835,88.917 			"/>
			<polygon style="fill:#E4A750;" points="96.468,83.511 88.082,84.54 88.082,76.155 96.468,75.125 			"/>
			<polygon style="fill:#E4A750;" points="51.451,127.728 45.273,128.487 45.273,120.249 51.451,119.49 			"/>
			<polygon style="fill:#3E417F;" points="91.172,117.997 83.816,118.9 83.816,110.662 91.172,109.758 			"/>
		</g>
		<path style="fill:none;stroke:#D68A50;stroke-width:3.3567;stroke-miterlimit:10;" d="M162.107,171.08l-0.718,83.453
			c-0.024,2.802,2.089,5.162,4.877,5.446l53.959,5.495c3.19,0.325,5.964-2.171,5.977-5.377l0.381-92.648"/>
		<polygon style="fill:#824B30;" points="28.889,186.342 162.757,158.928 246.856,164.657 118.329,196.344 		"/>
		<path style="fill:#3F2424;" d="M147.434,169.679c0,0-5.553-0.22-7.393-3.039c-1.839-2.82,3.257-15.043,3.257-15.043l-14.761,3.014
			c0,0-5.096,12.223-3.257,15.043s6.377,3.192,6.377,3.192l2.506-0.273L147.434,169.679z"/>
		<path style="fill:#513030;" d="M148.969,169.558c0,0-5.553-0.22-7.393-3.039s3.257-15.043,3.257-15.043l-14.761,3.014
			c0,0-5.096,12.223-3.256,15.043c1.839,2.82,7.393,3.039,7.393,3.039L148.969,169.558z"/>
		<polygon style="fill:#604343;" points="99.788,105.194 173.486,98.074 173.427,148.783 100.144,160.24 		"/>
		<polygon style="fill:#F6E7DE;" points="100.09,153.104 100.144,161.803 173.486,150.766 173.486,143.229 		"/>
		<polygon style="fill:#CEBAAF;" points="99.788,105.194 96.791,107.667 97.254,159.614 100.144,161.803 		"/>
		<path style="fill:#CEBAAF;" d="M140.114,151.902c-0.097,1.102-0.939,1.929-1.879,1.846c-0.941-0.083-1.624-1.044-1.527-2.146
			c0.097-1.102,0.939-1.929,1.879-1.846C139.527,149.839,140.211,150.8,140.114,151.902z"/>
		<path style="fill:none;stroke:#D68A50;stroke-width:3.7116;stroke-miterlimit:10;" d="M37.876,190.04l-0.326,104.823
			c-0.008,2.583,1.953,4.746,4.524,4.991l61.197,5.831c2.926,0.279,5.461-2.016,5.473-4.956l0.426-104.497"/>
		<g>
			<polygon style="fill:#3F2424;" points="116.067,177.742 116.067,179.479 144.304,181.504 189.92,171.953 189.979,170.544 
				163.472,170.087 			"/>
			<polygon style="fill:#513030;" points="116.067,177.742 164.782,168.449 189.979,170.544 144.078,179.996 			"/>
		</g>
		<path style="fill:#78422B;" d="M28.942,186.33l89.031,5.385v7.833l-88.675-5.385C29.298,194.163,28.586,185.974,28.942,186.33z"/>
		<polygon style="fill:#AB6134;" points="246.856,164.657 117.973,191.715 117.973,199.548 246.856,170.354 		"/>
		<g>
			
				<polyline style="fill:none;stroke:#34B77E;stroke-width:0.8063;stroke-linecap:round;stroke-linejoin:round;stroke-miterlimit:10;" points="
				107.053,112.305 104.388,115.726 107.05,118.346 			"/>
			
				<polyline style="fill:none;stroke:#34B77E;stroke-width:0.8063;stroke-linecap:round;stroke-linejoin:round;stroke-miterlimit:10;" points="
				113.751,111.302 116.417,113.926 113.754,117.343 			"/>
			
				<line style="fill:none;stroke:#34B77E;stroke-width:0.8063;stroke-linecap:round;stroke-linejoin:round;stroke-miterlimit:10;" x1="109.274" y1="118.532" x2="111.389" y2="111.656"/>
			<path style="fill:#34B77E;" d="M120,116.98c0,0.471-0.337,0.903-0.752,0.965c-0.415,0.062-0.752-0.269-0.752-0.74
				c0-0.471,0.337-0.903,0.752-0.965C119.663,116.178,120,116.509,120,116.98z"/>
			<path style="fill:#34B77E;" d="M123.112,116.514c0,0.471-0.337,0.903-0.752,0.965c-0.415,0.062-0.752-0.269-0.752-0.74
				c0-0.471,0.337-0.903,0.752-0.965C122.775,115.712,123.112,116.044,123.112,116.514z"/>
			<path style="fill:#34B77E;" d="M126.223,116.049c0,0.471-0.337,0.903-0.752,0.965c-0.415,0.062-0.752-0.269-0.752-0.74
				c0-0.471,0.336-0.903,0.752-0.965C125.887,115.247,126.223,115.578,126.223,116.049z"/>
			
				<line style="fill:none;stroke:#34B77E;stroke-width:0.7392;stroke-linecap:round;stroke-linejoin:round;stroke-miterlimit:10;" x1="104.388" y1="124.456" x2="168.314" y2="114.89"/>
			
				<line style="fill:none;stroke:#00FCFF;stroke-width:0.8321;stroke-linecap:round;stroke-linejoin:round;stroke-miterlimit:10;" x1="104.388" y1="128.207" x2="157.767" y2="120.22"/>
			
				<line style="fill:none;stroke:#00FCFF;stroke-width:0.8202;stroke-linecap:round;stroke-linejoin:round;stroke-miterlimit:10;" x1="161.922" y1="119.598" x2="168.314" y2="118.642"/>
			
				<line style="fill:none;stroke:#00FCFF;stroke-width:0.8202;stroke-linecap:round;stroke-linejoin:round;stroke-miterlimit:10;" x1="168.314" y1="122.752" x2="149.303" y2="125.597"/>
			
				<line style="fill:none;stroke:#E1F0FF;stroke-width:0.7392;stroke-linecap:round;stroke-linejoin:round;stroke-miterlimit:10;" x1="165.238" y1="103.598" x2="168.526" y2="103.106"/>
			
				<line style="fill:none;stroke:#E1F0FF;stroke-width:0.8202;stroke-linecap:round;stroke-linejoin:round;stroke-miterlimit:10;" x1="162.134" y1="107.814" x2="168.526" y2="106.857"/>
			
				<line style="fill:none;stroke:#E1F0FF;stroke-width:0.8202;stroke-linecap:round;stroke-linejoin:round;stroke-miterlimit:10;" x1="168.526" y1="110.968" x2="149.515" y2="113.813"/>
			
				<line style="fill:none;stroke:#00FCFF;stroke-width:0.8321;stroke-linecap:round;stroke-linejoin:round;stroke-miterlimit:10;" x1="145.734" y1="126.131" x2="140.5" y2="126.914"/>
			
				<line style="fill:none;stroke:#00FCFF;stroke-width:0.8321;stroke-linecap:round;stroke-linejoin:round;stroke-miterlimit:10;" x1="136.342" y1="127.536" x2="131.108" y2="128.319"/>
			
				<line style="fill:none;stroke:#00FCFF;stroke-width:0.8321;stroke-linecap:round;stroke-linejoin:round;stroke-miterlimit:10;" x1="126.95" y1="128.941" x2="121.715" y2="129.725"/>
			
				<line style="fill:none;stroke:#00FCFF;stroke-width:0.8321;stroke-linecap:round;stroke-linejoin:round;stroke-miterlimit:10;" x1="117.558" y1="130.347" x2="112.323" y2="131.13"/>
			
				<line style="fill:none;stroke:#FF4F92;stroke-width:0.7392;stroke-linecap:round;stroke-linejoin:round;stroke-miterlimit:10;" x1="168.314" y1="127.75" x2="110.651" y2="136.378"/>
			
				<line style="fill:none;stroke:#00FCFF;stroke-width:0.8321;stroke-linecap:round;stroke-linejoin:round;stroke-miterlimit:10;" x1="106.276" y1="132.035" x2="104.388" y2="132.318"/>
			
				<line style="fill:none;stroke:#00FCFF;stroke-width:0.8321;stroke-linecap:round;stroke-linejoin:round;stroke-miterlimit:10;" x1="106.276" y1="137.033" x2="104.388" y2="137.315"/>
			
				<line style="fill:none;stroke:#00FCFF;stroke-width:0.8321;stroke-linecap:round;stroke-linejoin:round;stroke-miterlimit:10;" x1="106.276" y1="142.03" x2="104.388" y2="142.313"/>
			
				<line style="fill:none;stroke:#00FCFF;stroke-width:0.8321;stroke-linecap:round;stroke-linejoin:round;stroke-miterlimit:10;" x1="106.276" y1="147.028" x2="104.388" y2="147.311"/>
			
				<line style="fill:none;stroke:#FF4F92;stroke-width:0.965;stroke-linecap:round;stroke-linejoin:round;stroke-miterlimit:10;" x1="112.13" y1="141.154" x2="134.84" y2="137.756"/>
			
				<line style="fill:none;stroke:#FF4F92;stroke-width:0.965;stroke-linecap:round;stroke-linejoin:round;stroke-miterlimit:10;" x1="112.13" y1="146.275" x2="142.255" y2="141.767"/>
			
				<line style="fill:none;stroke:#FF8B00;stroke-width:0.8321;stroke-linecap:round;stroke-linejoin:round;stroke-miterlimit:10;" x1="137.234" y1="137.398" x2="168.314" y2="132.747"/>
			
				<line style="fill:none;stroke:#FF8B00;stroke-width:0.8321;stroke-linecap:round;stroke-linejoin:round;stroke-miterlimit:10;" x1="144.415" y1="141.444" x2="168.314" y2="137.867"/>
		</g>
		<g>
			<path style="fill:#F68C77;" d="M159.438,165.048c-1.282,0.479-2.604,0.849-3.948,1.105c-2.024,0.386-4.079-0.559-6.139-0.526
				c-2.507,0.04-4.871,1.301-6.722,2.994c-1.85,1.692-3.261,3.8-4.653,5.886c2.047,0.774,4.371,0.791,6.43,0.047
				c1.543-0.558,2.945-1.526,4.557-1.833c1.328-0.253,2.704-0.037,4.043-0.222c1.777-0.245,3.372-1.171,4.987-1.952
				s3.407-1.443,5.169-1.108c-0.164-1.319,0.391-2.763-0.236-3.936C162.311,164.352,160.661,164.591,159.438,165.048z"/>
			<path style="fill:#F18875;" d="M191.36,269.839c-0.501,3.104-0.649,6.266-0.438,9.404c0.13,1.937,0.391,3.923-0.145,5.789
				c-2.482-0.448-4.941-0.956-7.335-1.75c-0.098-0.032-0.186-0.195-0.083-0.198c0.968-1.646,1.38-3.457,1.361-5.367
				c-0.019-1.91-0.381-3.797-0.742-5.673c-0.287-1.49-0.574-2.98-0.861-4.47c2.741-0.228,5.504-0.199,8.24,0.085
				C191.45,268.139,191.438,269.356,191.36,269.839z"/>
			<path style="fill:#1A1D3E;" d="M169.112,289.638c2.681,0.789,5.529,0.721,8.323,0.647c1.359-0.036,2.788-0.092,3.949-0.8
				c0.447-0.272,0.858-0.643,1.372-0.741c0.892-0.17,1.685,0.517,2.483,0.951c1.569,0.852,3.459,0.763,5.241,0.652
				c0.288-0.018,0.602-0.047,0.808-0.249c0.174-0.171,0.229-0.426,0.273-0.666c0.212-1.157,0.294-3.748,0.376-4.922
				c0.064-0.924-0.042-2.072-0.893-2.441c-0.343-0.149-1.229,1.15-4.011,0.694c-0.456-0.075-0.864-0.425-1.056-0.846
				c-0.18-0.395-0.106-0.87-0.284-1.267c-0.371-0.83-1.524-0.85-2.427-0.739c-0.441,1.796-2.348,2.692-4.083,3.332
				c-2.714,1.001-5.463,2.011-8.34,2.311c-0.613,0.064-1.27,0.11-1.756,0.49c-0.82,0.641-0.766,1.876-0.633,2.909
				C168.485,289.206,168.869,289.567,169.112,289.638z"/>
			<path style="fill:#343A75;" d="M245.344,185.118c-1.139,2.594-2.339,5.162-3.599,7.7c-11.746,3.16-23.392,5.138-35.491,6.399
				c-7.383,0.769-12.7,1.51-19.547,4.377c-0.785,0.329-1.577,0.702-2.16,1.322c-0.695,0.739-1.019,1.746-1.267,2.73
				c-1.603,6.363-3.129,12.754-3.455,19.307c-0.17,3.418-0.63,6.815-0.943,10.223c-0.991,10.769-0.521,21.613-0.051,32.418
				c5.614,1.343,11.788,0.784,17.446-0.361c0.161-2.187-0.102-4.944,0.692-7.143c0.794-2.199,1.281-12.666,0.554-15.632
				c-1.498-6.112,0.187-16.113,2.342-22.025c6.189,1.142,13.974-0.565,20.182-1.598c11.119-1.851,19.578,1.048,30.815,0.149
				c7.566-0.605,15.273-1.464,22.168-4.637c1.508-0.694,3.055-1.583,3.794-3.068c0.477-0.958,0.56-2.058,0.616-3.127
				c0.445-8.414-0.246-16.887-2.05-25.117c-0.132-0.603-0.291-1.241-0.739-1.665c-0.449-0.424-1.097-0.546-1.706-0.645
				c-4.116-0.669-8.26-1.157-12.419-1.463c-4.657-0.342-9.506-0.424-13.797,1.419C246.884,185.808,245.344,185.118,245.344,185.118z
				"/>
			<g>
				<g>
					<path style="fill:#1C1E3B;" d="M199.31,222.746c-0.699-0.925-1.477-1.756-2.38-2.485c-0.896-0.724-1.857-1.374-2.968-1.709
						c-0.277-0.083-0.381,0.281-0.182,0.432c0.863,0.656,1.788,1.231,2.626,1.921c0.837,0.689,1.625,1.459,2.327,2.286
						C198.999,223.505,199.563,223.08,199.31,222.746L199.31,222.746z"/>
				</g>
			</g>
			<g>
				<g>
					<path style="fill:#1C1E3B;" d="M200.84,223.529c-0.333-1.329-0.631-2.681-1.122-3.963c-0.079-0.206-0.457-0.203-0.423,0.057
						c0.182,1.383,0.561,2.733,0.906,4.082C200.307,224.118,200.943,223.943,200.84,223.529L200.84,223.529z"/>
				</g>
			</g>
			<path style="fill:#F68C77;" d="M239.483,110.915c1.007,1.852,3.119,3.043,5.224,2.948c0.999-0.045,2.254-0.242,2.772,0.614
				c0.211,0.348,0.218,0.777,0.23,1.183c0.047,1.605,0.27,3.204,0.664,4.76c0.067,0.264,0.144,0.538,0.329,0.737
				c0.241,0.26,0.613,0.342,0.962,0.403c3.755,0.659,7.667,0.408,11.308-0.727c-0.515-2.489,0.036-5.056,0.217-7.592
				c0.612-8.593-3.49-17.295-10.284-22.533c-2.37-1.827-6.534-4.885-9.433-2.519c-2.649,2.162-3.184,6.971-4.51,9.936
				c-0.472,1.054-1.717,2.508-1.358,3.692c0.247,0.814,1.548,1.585,1.978,2.428C238.642,106.325,238.357,108.845,239.483,110.915z"
				/>
			<path style="fill:#1C1E3B;" d="M243.935,92.189c-2.583,0.476-5.447,0.631-7.638-0.817c-2.048-1.354-3.089-4.067-2.472-6.444
				c0.617-2.376,2.846-4.241,5.293-4.429c1.076-0.082,2.169,0.129,3.233-0.055c1.817-0.313,3.236-1.703,4.906-2.484
				c2.846-1.329,6.495-0.676,8.703,1.558c3.277-0.715,6.714,0.59,9.403,2.595c1.644,1.225,3.173,2.71,3.977,4.595
				c1.64,3.846-0.078,8.221-1.779,12.04c-1.537,3.449-3.074,6.898-4.611,10.347c-0.554,1.244-1.154,2.546-2.256,3.346
				c-1.613,1.172-3.816,0.951-5.785,0.636c-2.012-0.322-4.281-0.869-5.26-2.656c-1.208-2.205,0.225-5.098-0.765-7.41
				c-0.718-1.677-2.506-2.591-3.733-3.941C243.456,97.209,243.077,94.558,243.935,92.189z"/>
			<path style="fill:#F18875;" d="M161.628,277.92c-0.533,3.302-0.69,6.664-0.466,10.001c0.138,2.06,0.415,4.172-0.154,6.156
				c-2.639-0.477-5.255-1.017-7.801-1.861c-0.104-0.034-0.197-0.207-0.088-0.211c1.029-1.751,1.467-3.677,1.447-5.707
				c-0.02-2.031-0.405-4.039-0.789-6.033c-0.305-1.585-0.61-3.169-0.915-4.754c2.915-0.242,5.854-0.212,8.763,0.091
				C161.724,276.112,161.711,277.407,161.628,277.92z"/>
			<path style="fill:#1A1D3E;" d="M137.968,298.977c2.851,0.839,5.88,0.767,8.851,0.688c1.445-0.038,2.965-0.098,4.199-0.851
				c0.475-0.29,0.912-0.684,1.459-0.788c0.948-0.181,1.792,0.55,2.641,1.011c1.668,0.906,3.679,0.812,5.573,0.693
				c0.306-0.019,0.64-0.05,0.859-0.265c0.185-0.182,0.244-0.453,0.29-0.708c0.225-1.231,0.313-3.986,0.4-5.235
				c0.068-0.983-0.045-2.204-0.949-2.596c-0.365-0.158-1.307,1.223-4.265,0.738c-0.485-0.079-0.919-0.452-1.123-0.899
				c-0.192-0.42-0.113-0.925-0.302-1.347c-0.395-0.883-1.621-0.904-2.581-0.785c-0.47,1.91-2.497,2.863-4.342,3.543
				c-2.886,1.065-5.81,2.138-8.87,2.458c-0.652,0.068-1.351,0.117-1.867,0.521c-0.872,0.682-0.814,1.995-0.674,3.093
				C137.301,298.517,137.709,298.901,137.968,298.977z"/>
			<path style="fill:#3D4180;" d="M219.04,187.821c-1.212,2.759-2.488,5.489-3.827,8.188c-12.492,3.361-24.878,5.464-37.744,6.805
				c-7.852,0.818-13.506,1.606-20.788,4.655c-0.835,0.35-1.677,0.747-2.298,1.406c-0.74,0.786-1.084,1.857-1.347,2.903
				c-1.705,6.767-3.327,13.563-3.674,20.532c-0.181,3.635-0.669,7.247-1.003,10.872c-1.053,11.453-0.555,22.986-0.055,34.476
				c5.97,1.429,12.537,0.834,18.554-0.384c0.171-2.326-0.108-5.258,0.736-7.597c0.844-2.339,1.363-13.47,0.589-16.625
				c-1.593-6.5,0.198-17.136,2.491-23.424c6.582,1.214,14.861-0.601,21.463-1.7c11.825-1.969,20.821,1.114,32.771,0.159
				c8.046-0.643,16.242-1.557,23.575-4.931c1.603-0.738,3.249-1.683,4.035-3.263c0.507-1.019,0.595-2.189,0.656-3.326
				c0.474-8.948-0.262-17.959-2.18-26.711c-0.14-0.641-0.309-1.32-0.786-1.771c-0.478-0.451-1.166-0.58-1.815-0.686
				c-4.377-0.711-8.785-1.23-13.207-1.555c-4.953-0.364-10.11-0.451-14.672,1.509C220.677,188.555,219.04,187.821,219.04,187.821z"
				/>
			<g>
				<g>
					<path style="fill:#1C1E3B;" d="M170.083,227.837c-0.743-0.984-1.57-1.867-2.531-2.643c-0.953-0.77-1.975-1.461-3.157-1.817
						c-0.294-0.089-0.405,0.298-0.194,0.459c0.917,0.698,1.901,1.309,2.793,2.043c0.891,0.733,1.728,1.552,2.474,2.432
						C169.753,228.645,170.352,228.193,170.083,227.837L170.083,227.837z"/>
				</g>
			</g>
			<g>
				<g>
					<path style="fill:#1C1E3B;" d="M171.71,228.671c-0.354-1.414-0.671-2.851-1.193-4.214c-0.084-0.219-0.486-0.216-0.45,0.061
						c0.193,1.47,0.597,2.906,0.964,4.341C171.143,229.296,171.82,229.111,171.71,228.671L171.71,228.671z"/>
				</g>
			</g>
			<path style="fill:#1C1E3B;" d="M265.089,121.146c-1.229-0.662-1.822-2.317-3.182-2.634c-0.544-0.127-1.111-0.005-1.657,0.114
				c-3.959,0.865-8.24,1.577-11.946-0.063c-0.386-0.171-0.839-0.366-1.209-0.161c-0.222,0.123-0.349,0.362-0.464,0.588
				c-0.385,0.754-0.77,1.508-1.155,2.262c-5.533-0.073-11.067,0.397-16.117,2.658c-2.428,1.087-4.602,2.667-6.677,4.331
				c-8.389,6.726-15.431,14.951-23.146,22.441c-1.561,1.516-3.206,3.038-5.238,3.817c-11.128,4.265-21.921,6.778-33.734,8.358
				c-0.702,0.094-1.483,0.228-1.904,0.797c-0.388,0.524-0.337,1.241-0.269,1.889c0.134,1.272,0.268,2.544,0.401,3.816
				c0.127,1.205,0.725,2.729,1.83,3.226c1.105,0.496,2.372,0.423,3.58,0.334c11.63-0.855,22.247-2.329,33.762-4.174
				c3.812-0.611,7.565-2.17,11.209-3.444c5.911-2.067,11.141-5.671,16.292-9.233c0.452,3.343,0.342,6.659-0.81,9.83
				c-1.997,5.501-6.308,10.252-6.743,16.088c-0.155,2.076,0.203,4.154,0.65,6.187c12.566,3.669,26.328,2.731,39.384,1.782
				c0.9-0.065,1.831-0.139,2.627-0.565c0.97-0.519,1.607-1.487,2.159-2.439c1.822-3.138,3.192-6.539,4.053-10.065
				c1.386-5.673,1.56-11.894,4.909-16.677c2.389-3.412,1.588-2.066,3.652-5.684c3.044-5.335,3.003-18.742,0.231-24.222
				C274.097,127.378,268.367,121.125,265.089,121.146z"/>
			<g>
				<g>
					<g>
						<path style="fill:#3D4180;" d="M263.335,122.335c-2.696,0.615-5.407,1.314-8.176,1.49c-1.281,0.081-2.577,0.048-3.845-0.163
							c-1.28-0.213-2.404-0.709-3.626-1.098c-0.269-0.085-0.386,0.283-0.181,0.429c1.024,0.729,2.424,1.051,3.644,1.263
							c1.286,0.223,2.597,0.285,3.9,0.219c2.875-0.147,5.657-0.902,8.398-1.73C263.71,122.665,263.601,122.274,263.335,122.335
							L263.335,122.335z"/>
					</g>
				</g>
				<g>
					<g>
						<path style="fill:#3D4180;" d="M239.28,122.341c2.395,3.014,3.22,6.977,2.535,10.736c-0.072,0.397,0.514,0.573,0.614,0.169
							c0.982-3.946-0.16-8.215-2.722-11.332C239.458,121.613,239.042,122.042,239.28,122.341L239.28,122.341z"/>
					</g>
				</g>
				<g>
					<g>
						<path style="fill:#3D4180;" d="M240.796,135.422c-0.787,1.978-1.587,3.952-2.673,5.789c-0.969,1.638-2.099,3.185-3.339,4.627
							c-1.225,1.424-2.553,2.759-3.924,4.043c-1.396,1.307-2.947,2.489-4.218,3.918c-0.228,0.256,0.07,0.713,0.386,0.5
							c1.61-1.082,3.022-2.492,4.424-3.826c1.438-1.368,2.824-2.794,4.089-4.325c1.233-1.493,2.352-3.074,3.252-4.791
							c0.977-1.864,1.712-3.844,2.434-5.816C241.327,135.268,240.901,135.16,240.796,135.422L240.796,135.422z"/>
					</g>
				</g>
				<g>
					<g>
						<path style="fill:#3D4180;" d="M196.105,154.47c0.405,0.483,0.81,0.965,1.216,1.448c0.196,0.233,0.383,0.478,0.596,0.695
							c0.227,0.23,0.454,0.461,0.681,0.691c0.221,0.224,0.638-0.075,0.447-0.345c-0.18-0.255-0.36-0.51-0.54-0.764
							c-0.194-0.275-0.419-0.528-0.635-0.786c-0.409-0.492-0.819-0.984-1.228-1.476c-0.131-0.158-0.402-0.136-0.537,0
							C195.95,154.088,195.973,154.312,196.105,154.47L196.105,154.47z"/>
					</g>
				</g>
				<g>
					<g>
						<path style="fill:#3D4180;" d="M195.427,154.916c0.212,1.305,0.26,2.629,0.201,3.949c-0.02,0.434,0.639,0.427,0.67,0
							c0.101-1.38,0.006-2.764-0.225-4.127c-0.03-0.179-0.251-0.279-0.412-0.234C195.471,154.556,195.398,154.737,195.427,154.916
							L195.427,154.916z"/>
					</g>
				</g>
			</g>
		</g>
		<g>
			<g>
				<g>
					<path style="fill:#4C2C17;" d="M212.871,226.206c-3.328,2.794-5.818,6.475-7.767,10.328c-2.035,4.021-3.621,8.272-4.901,12.588
						c-1.385,4.672-2.241,9.48-3.155,14.261c-1.14,5.963-2.143,11.954-3.088,17.95c-1.065,6.752-1.956,13.524-2.74,20.314
						c-0.141,1.222,1.997,1.523,2.164,0.293c1.612-11.865,3.401-23.719,5.493-35.51c0.878-4.947,1.745-9.89,2.79-14.806
						c0.919-4.323,2.063-8.675,3.812-12.744c1.909-4.442,4.428-8.751,8.081-11.986C214.034,226.476,213.346,225.807,212.871,226.206
						L212.871,226.206z"/>
				</g>
			</g>
			<g>
				<g>
					<path style="fill:#4C2C17;" d="M235,227.897c-6.284,7.158-8.704,16.759-10.355,25.915c-0.973,5.396-1.619,10.878-2.258,16.322
						c-0.67,5.711-1.273,11.429-1.809,17.153c-0.609,6.505-1.049,13.019-1.404,19.542c-0.035,0.642,0.571,1.189,1.189,1.189
						c0.684,0,1.14-0.546,1.189-1.189c0.857-11.339,1.851-22.68,3.088-33.984c0.603-5.509,1.223-11.016,1.916-16.514
						c0.582-4.617,1.068-9.257,2.307-13.759c1.384-5.028,3.53-9.895,6.881-13.932C236.169,228.126,235.451,227.384,235,227.897
						L235,227.897z"/>
				</g>
			</g>
			<g>
				<g>
					<path style="fill:#4C2C17;" d="M275.428,226.974c6.622,6.76,9.286,16.009,11.101,25.045c2.197,10.939,4.432,21.865,6.335,32.86
						c1.101,6.361,2.198,12.724,3.212,19.099c0.101,0.634,0.892,0.987,1.462,0.83c0.686-0.188,0.918-0.823,0.83-1.462
						c-1.583-11.506-3.557-22.936-5.824-34.326c-0.562-2.824-1.16-5.64-1.773-8.453c-0.572-2.626-1.103-5.272-1.776-7.875
						c-1.194-4.615-2.576-9.165-4.411-13.568c-1.991-4.779-4.667-9.277-8.412-12.893
						C275.685,225.761,274.954,226.49,275.428,226.974L275.428,226.974z"/>
				</g>
			</g>
			<path style="fill:#AFA19B;" d="M202.484,221.088c2.484-2.357,5.846-3.525,9.145-4.44c3.165-0.878,6.377-1.586,9.618-2.119
				c1.553-0.256,3.168-0.491,4.489-1.347c2.084-1.351,2.97-3.914,3.636-6.306c2.548-9.142,3.93-18.565,6.104-27.803
				c2.174-9.238,5.218-18.443,10.692-26.195c5.474-7.752,13.666-13.959,23.052-15.357c2.812-0.419,5.742-0.396,8.432,0.525
				c7.335,2.51,10.909,10.72,12.745,18.252c4.151,17.03,3.76,34.795,3.345,52.318c-0.116,4.901-0.399,10.248-3.648,13.919
				c-4.013,4.533-10.879,4.755-16.932,4.744c-14.929-0.026-29.852,0.595-44.753,1.463c-7.381,0.43-14.759,0.918-22.135,1.427
				c-3.405,0.235-6.267,1.591-6.797-2.396C199.162,225.406,200.853,222.637,202.484,221.088z"/>
			<g>
				<g>
					<path style="fill:#686868;" d="M267.48,138.361c-5.663,2.372-10.28,6.323-13.838,11.298
						c-4.028,5.632-6.661,12.257-8.737,18.821c-2.332,7.375-3.748,15.017-4.252,22.734c-0.514,7.865-0.319,15.836-2.474,23.491
						c-0.696,2.474-1.626,4.924-3.169,7.003c-1.5,2.021-3.56,3.503-5.805,4.6c-0.672,0.328-1.36,0.621-2.057,0.892
						c-0.613,0.238-0.344,1.238,0.274,0.995c2.463-0.967,4.841-2.21,6.765-4.055c1.745-1.673,2.976-3.759,3.862-5.993
						c2.711-6.839,2.885-14.397,3.186-21.645c0.164-3.941,0.382-7.874,0.904-11.786c0.52-3.898,1.285-7.767,2.279-11.572
						c1.83-7.01,4.326-14.095,8.082-20.322c3.211-5.324,7.591-9.895,13.078-12.888c0.694-0.378,1.402-0.727,2.121-1.054
						C267.988,138.748,267.777,138.236,267.48,138.361L267.48,138.361z"/>
				</g>
			</g>
		</g>
		<g>
			<path style="fill:#F5C282;" d="M221.321,78.048l-28.626,1.35c-3.064,0.145-5.665-2.222-5.809-5.286l-0.279-5.909
				c-0.145-3.064,2.222-5.665,5.286-5.809l28.626-1.35c3.064-0.145,5.664,2.222,5.809,5.286l0.279,5.909
				C226.751,75.302,224.385,77.903,221.321,78.048z"/>
			<g>
				<path style="fill:#FFFFFF;" d="M202.905,70.6c0.014,0.3-0.218,0.556-0.519,0.57c-0.3,0.014-0.555-0.218-0.57-0.519
					c-0.014-0.3,0.218-0.555,0.518-0.57C202.636,70.067,202.891,70.299,202.905,70.6z"/>
				<path style="fill:#FFFFFF;" d="M207.161,70.399c0.014,0.3-0.218,0.556-0.519,0.57c-0.3,0.014-0.556-0.218-0.57-0.518
					c-0.014-0.3,0.218-0.556,0.518-0.57C206.892,69.867,207.147,70.099,207.161,70.399z"/>
				<path style="fill:#FFFFFF;" d="M211.417,70.199c0.014,0.3-0.218,0.556-0.519,0.57c-0.3,0.014-0.556-0.218-0.57-0.519
					c-0.014-0.3,0.218-0.556,0.519-0.57C211.147,69.666,211.403,69.898,211.417,70.199z"/>
			</g>
			<circle style="fill:#F5C282;" cx="217.853" cy="78.766" r="2.96"/>
			<path style="fill:#F5C282;" d="M223.92,83.237c0,1.115-0.904,2.018-2.018,2.018c-1.115,0-2.018-0.904-2.018-2.018
				c0-1.115,0.904-2.018,2.018-2.018C223.016,81.219,223.92,82.123,223.92,83.237z"/>
			<path style="fill:#F5C282;" d="M226.479,86.426c0,0.58-0.471,1.051-1.051,1.051c-0.58,0-1.051-0.471-1.051-1.051
				c0-0.581,0.471-1.051,1.051-1.051C226.009,85.375,226.479,85.845,226.479,86.426z"/>
		</g>
	</g>
</svg>